<mxfile host="app.diagrams.net" modified="2020-04-14T10:11:55.018Z" agent="5.0 (Macintosh; Intel Mac OS X 10_13_6) AppleWebKit/537.36 (KHTML, like Gecko) Chrome/80.0.3987.163 Safari/537.36" etag="sJJGCaCg6CmQ1toRM4DD" version="12.9.11" type="github">
  <diagram id="-WW9dOLwDgeUJ4MewNTD" name="Page-1">
    <mxGraphModel dx="825" dy="622" grid="1" gridSize="10" guides="1" tooltips="1" connect="1" arrows="1" fold="1" page="1" pageScale="1" pageWidth="827" pageHeight="1169" math="0" shadow="0">
      <root>
        <mxCell id="0" />
        <mxCell id="1" parent="0" />
        <mxCell id="R32jef7YFRfDoom-mxZs-1" value="" style="ellipse;shape=cloud;whiteSpace=wrap;html=1;" parent="1" vertex="1">
          <mxGeometry x="100" y="170" width="250" height="190" as="geometry" />
        </mxCell>
        <mxCell id="R32jef7YFRfDoom-mxZs-2" value="Auto-Scaler" style="rounded=1;whiteSpace=wrap;html=1;" parent="1" vertex="1">
          <mxGeometry x="100" y="190" width="100" height="35" as="geometry" />
        </mxCell>
        <mxCell id="R32jef7YFRfDoom-mxZs-4" value="" style="outlineConnect=0;fontColor=#232F3E;gradientColor=none;fillColor=#D86613;strokeColor=none;dashed=0;verticalLabelPosition=bottom;verticalAlign=top;align=center;html=1;fontSize=12;fontStyle=0;aspect=fixed;pointerEvents=1;shape=mxgraph.aws4.c4_instance;" parent="1" vertex="1">
          <mxGeometry x="180" y="240" width="30" height="30" as="geometry" />
        </mxCell>
        <mxCell id="R32jef7YFRfDoom-mxZs-5" value="" style="outlineConnect=0;fontColor=#232F3E;gradientColor=none;fillColor=#D86613;strokeColor=none;dashed=0;verticalLabelPosition=bottom;verticalAlign=top;align=center;html=1;fontSize=12;fontStyle=0;aspect=fixed;pointerEvents=1;shape=mxgraph.aws4.c4_instance;" parent="1" vertex="1">
          <mxGeometry x="240" y="234" width="30" height="30" as="geometry" />
        </mxCell>
        <mxCell id="R32jef7YFRfDoom-mxZs-6" value="" style="outlineConnect=0;fontColor=#232F3E;gradientColor=none;fillColor=#D86613;strokeColor=none;dashed=0;verticalLabelPosition=bottom;verticalAlign=top;align=center;html=1;fontSize=12;fontStyle=0;aspect=fixed;pointerEvents=1;shape=mxgraph.aws4.c4_instance;" parent="1" vertex="1">
          <mxGeometry x="190" y="290" width="30" height="30" as="geometry" />
        </mxCell>
        <mxCell id="R32jef7YFRfDoom-mxZs-7" value="" style="outlineConnect=0;fontColor=#232F3E;gradientColor=none;fillColor=#D86613;strokeColor=none;dashed=0;verticalLabelPosition=bottom;verticalAlign=top;align=center;html=1;fontSize=12;fontStyle=0;aspect=fixed;pointerEvents=1;shape=mxgraph.aws4.c4_instance;" parent="1" vertex="1">
          <mxGeometry x="250" y="282" width="30" height="30" as="geometry" />
        </mxCell>
        <mxCell id="R32jef7YFRfDoom-mxZs-8" value="" style="ellipse;shape=cloud;whiteSpace=wrap;html=1;" parent="1" vertex="1">
          <mxGeometry x="420" y="170" width="250" height="190" as="geometry" />
        </mxCell>
        <mxCell id="R32jef7YFRfDoom-mxZs-9" value="Auto-Scaler" style="rounded=1;whiteSpace=wrap;html=1;" parent="1" vertex="1">
          <mxGeometry x="405" y="192.5" width="100" height="30" as="geometry" />
        </mxCell>
        <mxCell id="R32jef7YFRfDoom-mxZs-10" value="" style="outlineConnect=0;fontColor=#232F3E;gradientColor=none;fillColor=#D86613;strokeColor=none;dashed=0;verticalLabelPosition=bottom;verticalAlign=top;align=center;html=1;fontSize=12;fontStyle=0;aspect=fixed;pointerEvents=1;shape=mxgraph.aws4.c4_instance;" parent="1" vertex="1">
          <mxGeometry x="470" y="240" width="30" height="30" as="geometry" />
        </mxCell>
        <mxCell id="R32jef7YFRfDoom-mxZs-11" value="" style="outlineConnect=0;fontColor=#232F3E;gradientColor=none;fillColor=#D86613;strokeColor=none;dashed=0;verticalLabelPosition=bottom;verticalAlign=top;align=center;html=1;fontSize=12;fontStyle=0;aspect=fixed;pointerEvents=1;shape=mxgraph.aws4.c4_instance;" parent="1" vertex="1">
          <mxGeometry x="510" y="252" width="30" height="30" as="geometry" />
        </mxCell>
        <mxCell id="R32jef7YFRfDoom-mxZs-12" value="" style="outlineConnect=0;fontColor=#232F3E;gradientColor=none;fillColor=#D86613;strokeColor=none;dashed=0;verticalLabelPosition=bottom;verticalAlign=top;align=center;html=1;fontSize=12;fontStyle=0;aspect=fixed;pointerEvents=1;shape=mxgraph.aws4.c4_instance;" parent="1" vertex="1">
          <mxGeometry x="475" y="284" width="30" height="30" as="geometry" />
        </mxCell>
        <mxCell id="R32jef7YFRfDoom-mxZs-13" value="" style="outlineConnect=0;fontColor=#232F3E;gradientColor=none;fillColor=#D86613;strokeColor=none;dashed=0;verticalLabelPosition=bottom;verticalAlign=top;align=center;html=1;fontSize=12;fontStyle=0;aspect=fixed;pointerEvents=1;shape=mxgraph.aws4.c4_instance;" parent="1" vertex="1">
          <mxGeometry x="550" y="250" width="30" height="30" as="geometry" />
        </mxCell>
        <mxCell id="R32jef7YFRfDoom-mxZs-22" value="" style="shape=flexArrow;endArrow=classic;html=1;" parent="1" edge="1">
          <mxGeometry width="50" height="50" relative="1" as="geometry">
            <mxPoint x="349.9974252700058" y="258.39025646209757" as="sourcePoint" />
            <mxPoint x="430" y="258" as="targetPoint" />
          </mxGeometry>
        </mxCell>
        <mxCell id="R32jef7YFRfDoom-mxZs-23" value="(a) 水平扩展 Horizontal Scaling" style="text;html=1;strokeColor=none;fillColor=none;align=center;verticalAlign=middle;whiteSpace=wrap;rounded=0;fontStyle=1" parent="1" vertex="1">
          <mxGeometry x="297" y="340" width="200" height="20" as="geometry" />
        </mxCell>
        <mxCell id="R32jef7YFRfDoom-mxZs-24" value="" style="ellipse;shape=cloud;whiteSpace=wrap;html=1;" parent="1" vertex="1">
          <mxGeometry x="100" y="363" width="250" height="190" as="geometry" />
        </mxCell>
        <mxCell id="R32jef7YFRfDoom-mxZs-25" value="Auto-Scaler" style="rounded=1;whiteSpace=wrap;html=1;" parent="1" vertex="1">
          <mxGeometry x="100" y="383" width="100" height="35" as="geometry" />
        </mxCell>
        <mxCell id="R32jef7YFRfDoom-mxZs-27" value="" style="outlineConnect=0;fontColor=#232F3E;gradientColor=none;fillColor=#D86613;strokeColor=none;dashed=0;verticalLabelPosition=bottom;verticalAlign=top;align=center;html=1;fontSize=12;fontStyle=0;aspect=fixed;pointerEvents=1;shape=mxgraph.aws4.c4_instance;" parent="1" vertex="1">
          <mxGeometry x="210" y="446.5" width="30" height="30" as="geometry" />
        </mxCell>
        <mxCell id="R32jef7YFRfDoom-mxZs-28" value="" style="outlineConnect=0;fontColor=#232F3E;gradientColor=none;fillColor=#D86613;strokeColor=none;dashed=0;verticalLabelPosition=bottom;verticalAlign=top;align=center;html=1;fontSize=12;fontStyle=0;aspect=fixed;pointerEvents=1;shape=mxgraph.aws4.c4_instance;" parent="1" vertex="1">
          <mxGeometry x="210" y="403" width="30" height="30" as="geometry" />
        </mxCell>
        <mxCell id="R32jef7YFRfDoom-mxZs-30" value="" style="ellipse;shape=cloud;whiteSpace=wrap;html=1;" parent="1" vertex="1">
          <mxGeometry x="430" y="375" width="250" height="190" as="geometry" />
        </mxCell>
        <mxCell id="R32jef7YFRfDoom-mxZs-31" value="Auto-Scaler" style="rounded=1;whiteSpace=wrap;html=1;" parent="1" vertex="1">
          <mxGeometry x="405" y="385.5" width="100" height="30" as="geometry" />
        </mxCell>
        <mxCell id="R32jef7YFRfDoom-mxZs-37" value="" style="outlineConnect=0;fontColor=#232F3E;gradientColor=none;fillColor=#D86613;strokeColor=none;dashed=0;verticalLabelPosition=bottom;verticalAlign=top;align=center;html=1;fontSize=12;fontStyle=0;aspect=fixed;pointerEvents=1;shape=mxgraph.aws4.t2_instance;" parent="1" vertex="1">
          <mxGeometry x="580" y="433" width="57" height="57" as="geometry" />
        </mxCell>
        <mxCell id="R32jef7YFRfDoom-mxZs-38" value="" style="outlineConnect=0;fontColor=#232F3E;gradientColor=none;fillColor=#D86613;strokeColor=none;dashed=0;verticalLabelPosition=bottom;verticalAlign=top;align=center;html=1;fontSize=12;fontStyle=0;aspect=fixed;pointerEvents=1;shape=mxgraph.aws4.g3_instance;" parent="1" vertex="1">
          <mxGeometry x="475" y="460" width="53.5" height="53.5" as="geometry" />
        </mxCell>
        <mxCell id="R32jef7YFRfDoom-mxZs-39" value="" style="outlineConnect=0;fontColor=#232F3E;gradientColor=none;fillColor=#D86613;strokeColor=none;dashed=0;verticalLabelPosition=bottom;verticalAlign=top;align=center;html=1;fontSize=12;fontStyle=0;aspect=fixed;pointerEvents=1;shape=mxgraph.aws4.c4_instance;" parent="1" vertex="1">
          <mxGeometry x="260" y="442.5" width="27.5" height="27.5" as="geometry" />
        </mxCell>
        <mxCell id="R32jef7YFRfDoom-mxZs-40" value="" style="outlineConnect=0;fontColor=#232F3E;gradientColor=none;fillColor=#D86613;strokeColor=none;dashed=0;verticalLabelPosition=bottom;verticalAlign=top;align=center;html=1;fontSize=12;fontStyle=0;aspect=fixed;pointerEvents=1;shape=mxgraph.aws4.c4_instance;" parent="1" vertex="1">
          <mxGeometry x="210" y="490" width="30" height="30" as="geometry" />
        </mxCell>
        <mxCell id="R32jef7YFRfDoom-mxZs-41" value="" style="shape=flexArrow;endArrow=classic;html=1;" parent="1" source="R32jef7YFRfDoom-mxZs-24" edge="1">
          <mxGeometry width="50" height="50" relative="1" as="geometry">
            <mxPoint x="380" y="507" as="sourcePoint" />
            <mxPoint x="430" y="457" as="targetPoint" />
          </mxGeometry>
        </mxCell>
        <mxCell id="R32jef7YFRfDoom-mxZs-42" value="(b) 垂直扩展 Vertical Scaling" style="text;html=1;strokeColor=none;fillColor=none;align=center;verticalAlign=middle;whiteSpace=wrap;rounded=0;fontStyle=1" parent="1" vertex="1">
          <mxGeometry x="309" y="536" width="167" height="20" as="geometry" />
        </mxCell>
        <mxCell id="R32jef7YFRfDoom-mxZs-43" value="Scale-Out" style="text;html=1;align=center;verticalAlign=middle;resizable=0;points=[];autosize=1;fontStyle=1" parent="1" vertex="1">
          <mxGeometry x="344" y="234" width="70" height="20" as="geometry" />
        </mxCell>
        <mxCell id="ngIhMRhnUH4AUdWcvpfG-2" value="" style="outlineConnect=0;fontColor=#232F3E;gradientColor=none;fillColor=#D86613;strokeColor=none;dashed=0;verticalLabelPosition=bottom;verticalAlign=top;align=center;html=1;fontSize=12;fontStyle=0;aspect=fixed;pointerEvents=1;shape=mxgraph.aws4.c4_instance;" vertex="1" parent="1">
          <mxGeometry x="520" y="300" width="30" height="30" as="geometry" />
        </mxCell>
        <mxCell id="ngIhMRhnUH4AUdWcvpfG-3" value="" style="outlineConnect=0;fontColor=#232F3E;gradientColor=none;fillColor=#D86613;strokeColor=none;dashed=0;verticalLabelPosition=bottom;verticalAlign=top;align=center;html=1;fontSize=12;fontStyle=0;aspect=fixed;pointerEvents=1;shape=mxgraph.aws4.c4_instance;" vertex="1" parent="1">
          <mxGeometry x="560" y="300" width="30" height="30" as="geometry" />
        </mxCell>
        <mxCell id="ngIhMRhnUH4AUdWcvpfG-4" value="" style="outlineConnect=0;fontColor=#232F3E;gradientColor=none;fillColor=#D86613;strokeColor=none;dashed=0;verticalLabelPosition=bottom;verticalAlign=top;align=center;html=1;fontSize=12;fontStyle=0;aspect=fixed;pointerEvents=1;shape=mxgraph.aws4.c4_instance;" vertex="1" parent="1">
          <mxGeometry x="520" y="204" width="30" height="30" as="geometry" />
        </mxCell>
        <mxCell id="ngIhMRhnUH4AUdWcvpfG-5" value="" style="outlineConnect=0;fontColor=#232F3E;gradientColor=none;fillColor=#D86613;strokeColor=none;dashed=0;verticalLabelPosition=bottom;verticalAlign=top;align=center;html=1;fontSize=12;fontStyle=0;aspect=fixed;pointerEvents=1;shape=mxgraph.aws4.c4_instance;" vertex="1" parent="1">
          <mxGeometry x="590" y="270" width="30" height="30" as="geometry" />
        </mxCell>
        <mxCell id="ngIhMRhnUH4AUdWcvpfG-6" value="" style="outlineConnect=0;fontColor=#232F3E;gradientColor=none;fillColor=#D86613;strokeColor=none;dashed=0;verticalLabelPosition=bottom;verticalAlign=top;align=center;html=1;fontSize=12;fontStyle=0;aspect=fixed;pointerEvents=1;shape=mxgraph.aws4.c4_instance;" vertex="1" parent="1">
          <mxGeometry x="590" y="225" width="30" height="30" as="geometry" />
        </mxCell>
        <mxCell id="ngIhMRhnUH4AUdWcvpfG-10" value="" style="shape=flexArrow;endArrow=classic;html=1;" edge="1" parent="1">
          <mxGeometry width="50" height="50" relative="1" as="geometry">
            <mxPoint x="421" y="284" as="sourcePoint" />
            <mxPoint x="347.55065680085363" y="284.42469597167326" as="targetPoint" />
          </mxGeometry>
        </mxCell>
        <mxCell id="ngIhMRhnUH4AUdWcvpfG-11" value="Scale-In" style="text;html=1;align=center;verticalAlign=middle;resizable=0;points=[];autosize=1;fontStyle=1" vertex="1" parent="1">
          <mxGeometry x="365" y="292" width="60" height="20" as="geometry" />
        </mxCell>
        <mxCell id="ngIhMRhnUH4AUdWcvpfG-12" value="" style="outlineConnect=0;fontColor=#232F3E;gradientColor=none;fillColor=#D86613;strokeColor=none;dashed=0;verticalLabelPosition=bottom;verticalAlign=top;align=center;html=1;fontSize=12;fontStyle=0;aspect=fixed;pointerEvents=1;shape=mxgraph.aws4.optimized_instance;" vertex="1" parent="1">
          <mxGeometry x="515" y="403" width="47" height="47" as="geometry" />
        </mxCell>
        <mxCell id="ngIhMRhnUH4AUdWcvpfG-13" value="" style="outlineConnect=0;fontColor=#232F3E;gradientColor=none;fillColor=#D86613;strokeColor=none;dashed=0;verticalLabelPosition=bottom;verticalAlign=top;align=center;html=1;fontSize=12;fontStyle=0;aspect=fixed;pointerEvents=1;shape=mxgraph.aws4.m5_instance;" vertex="1" parent="1">
          <mxGeometry x="540" y="490" width="48" height="48" as="geometry" />
        </mxCell>
        <mxCell id="ngIhMRhnUH4AUdWcvpfG-14" value="" style="shape=flexArrow;endArrow=classic;html=1;" edge="1" parent="1">
          <mxGeometry width="50" height="50" relative="1" as="geometry">
            <mxPoint x="423.45" y="485" as="sourcePoint" />
            <mxPoint x="350.0006568008536" y="485.42469597167326" as="targetPoint" />
          </mxGeometry>
        </mxCell>
        <mxCell id="ngIhMRhnUH4AUdWcvpfG-15" value="Scale-Up&lt;span style=&quot;font-family: monospace ; font-size: 0px ; font-weight: 400&quot;&gt;%3CmxGraphModel%3E%3Croot%3E%3CmxCell%20id%3D%220%22%2F%3E%3CmxCell%20id%3D%221%22%20parent%3D%220%22%2F%3E%3CmxCell%20id%3D%222%22%20value%3D%22Scale-Out%22%20style%3D%22text%3Bhtml%3D1%3Balign%3Dcenter%3BverticalAlign%3Dmiddle%3Bresizable%3D0%3Bpoints%3D%5B%5D%3Bautosize%3D1%3BfontStyle%3D1%22%20vertex%3D%221%22%20parent%3D%221%22%3E%3CmxGeometry%20x%3D%22345%22%20y%3D%22228%22%20width%3D%2270%22%20height%3D%2220%22%20as%3D%22geometry%22%2F%3E%3C%2FmxCell%3E%3C%2Froot%3E%3C%2FmxGraphModel%3E&lt;/span&gt;" style="text;html=1;align=center;verticalAlign=middle;resizable=0;points=[];autosize=1;fontStyle=1" vertex="1" parent="1">
          <mxGeometry x="344" y="426.5" width="70" height="20" as="geometry" />
        </mxCell>
        <mxCell id="ngIhMRhnUH4AUdWcvpfG-16" value="Scale-Down&lt;span style=&quot;font-family: monospace ; font-size: 0px ; font-weight: 400&quot;&gt;%3CmxGraphModel%3E%3Croot%3E%3CmxCell%20id%3D%220%22%2F%3E%3CmxCell%20id%3D%221%22%20parent%3D%220%22%2F%3E%3CmxCell%20id%3D%222%22%20value%3D%22Scale-Out%22%20style%3D%22text%3Bhtml%3D1%3Balign%3Dcenter%3BverticalAlign%3Dmiddle%3Bresizable%3D0%3Bpoints%3D%5B%5D%3Bautosize%3D1%3BfontStyle%3D1%22%20vertex%3D%221%22%20parent%3D%221%22%3E%3CmxGeometry%20x%3D%22345%22%20y%3D%22228%22%20width%3D%2270%22%20height%3D%2220%22%20as%3D%22geometry%22%2F%3E%3C%2FmxCell%3E%3C%2Froot%3E%3C%2FmxGraphModel%3E&lt;/span&gt;" style="text;html=1;align=center;verticalAlign=middle;resizable=0;points=[];autosize=1;fontStyle=1" vertex="1" parent="1">
          <mxGeometry x="365" y="493.5" width="80" height="20" as="geometry" />
        </mxCell>
      </root>
    </mxGraphModel>
  </diagram>
</mxfile>
